<?xml version="1.0" encoding="utf-8"?><svg xmlns="http://www.w3.org/2000/svg" xmlns:xlink="http://www.w3.org/1999/xlink"><symbol viewBox="0 0 20 20" id="calendar"><path d="M17 3h-1v2h-3V3H7v2H4V3H3c-1.1 0-2 .9-2 2v12c0 1.1.9 2 2 2h14c1.1 0 2-.9 2-2V5c0-1.1-.9-2-2-2zm0 14H3V9h14v8zM6.5 1h-2v3.5h2V1zm9 0h-2v3.5h2V1z"/></symbol><symbol viewBox="0 0 512 512" id="checkmark"><path d="M256 32C132.3 32 32 132.3 32 256s100.3 224 224 224 224-100.3 224-224S379.7 32 256 32zm114.9 149.1L231.8 359.6c-1.1 1.1-2.9 3.5-5.1 3.5-2.3 0-3.8-1.6-5.1-2.9-1.3-1.3-78.9-75.9-78.9-75.9l-1.5-1.5c-.6-.9-1.1-2-1.1-3.2 0-1.2.5-2.3 1.1-3.2.4-.4.7-.7 1.1-1.2 7.7-8.1 23.3-24.5 24.3-25.5 1.3-1.3 2.4-3 4.8-3 2.5 0 4.1 2.1 5.3 3.3 1.2 1.2 45 43.3 45 43.3l111.3-143c1-.8 2.2-1.4 3.5-1.4 1.3 0 2.5.5 3.5 1.3l30.6 24.1c.8 1 1.3 2.2 1.3 3.5.1 1.3-.4 2.4-1 3.3z"/></symbol><symbol viewBox="0 0 20 20" id="info"><path d="M10 .4C4.697.4.399 4.698.399 10A9.6 9.6 0 0 0 10 19.601c5.301 0 9.6-4.298 9.6-9.601 0-5.302-4.299-9.6-9.6-9.6zm.896 3.466c.936 0 1.211.543 1.211 1.164 0 .775-.62 1.492-1.679 1.492-.886 0-1.308-.445-1.282-1.182 0-.621.519-1.474 1.75-1.474zM8.498 15.75c-.64 0-1.107-.389-.66-2.094l.733-3.025c.127-.484.148-.678 0-.678-.191 0-1.022.334-1.512.664l-.319-.523c1.555-1.299 3.343-2.061 4.108-2.061.64 0 .746.756.427 1.92l-.84 3.18c-.149.562-.085.756.064.756.192 0 .82-.232 1.438-.719l.362.486c-1.513 1.512-3.162 2.094-3.801 2.094z"/></symbol><symbol viewBox="0 0 20 18" id="warning"><title>Shape</title><path d="M19.511 16.98L10.604.348a.697.697 0 0 0-1.208 0L.49 16.98a.675.675 0 0 0 .005.68c.125.211.352.34.598.34h17.814a.694.694 0 0 0 .598-.34.677.677 0 0 0 .006-.68zM11 16H9v-2h2v2zm0-3.5H9V6h2v6.5z" fill="#F00" fill-rule="evenodd"/></symbol></svg>